<svg width="24" height="24" fill="none" xmlns="http://www.w3.org/2000/svg"><path fill-rule="evenodd" clip-rule="evenodd" d="M8 1a1 1 0 0 1 1 1v1h6V2a1 1 0 1 1 2 0v1c.46 0 .86.003 1.195.03.395.033.788.104 1.166.297a3 3 0 0 1 1.312 1.31c.193.379.264.772.297 1.167.03.374.03.828.03 1.354v9.684c0 .526 0 .98-.03 1.354-.033.395-.104.788-.297 1.166a3.001 3.001 0 0 1-1.312 1.311c-.378.193-.77.264-1.165.297-.374.03-.828.03-1.354.03H7.158c-.526 0-.98 0-1.354-.03-.395-.033-.788-.104-1.166-.297a3 3 0 0 1-1.311-1.311c-.193-.378-.264-.772-.296-1.167C3 17.821 3 17.365 3 16.84V7.162c0-.527 0-.982.03-1.357.033-.395.104-.789.297-1.167a2.999 2.999 0 0 1 1.31-1.311c.38-.193.773-.264 1.168-.296C6.141 3.003 6.541 3 7 3V2a1 1 0 0 1 1-1ZM5.968 5.024c-.272.022-.373.06-.422.085a1 1 0 0 0-.437.437c-.025.05-.063.15-.085.422C5.004 6.217 5 6.535 5 7h14c0-.466-.003-.784-.024-1.033-.022-.271-.06-.372-.085-.421a1 1 0 0 0-.438-.437c-.05-.025-.15-.063-.421-.085C17.749 5 17.377 5 16.8 5H7.2c-.576 0-.949 0-1.232.024ZM19 9H5v7.8c0 .577 0 .949.024 1.232.022.272.06.372.085.422a1 1 0 0 0 .437.437c.049.025.15.063.42.085.284.023.655.024 1.23.024h9.607c.576 0 .947 0 1.23-.024.27-.022.371-.06.42-.085.19-.096.343-.25.438-.437.025-.05.063-.15.085-.42.023-.284.024-.655.024-1.23V9ZM7 12.25c0-.69.56-1.25 1.25-1.25h3.5c.69 0 1.25.56 1.25 1.25v3.5c0 .69-.56 1.25-1.25 1.25h-3.5C7.56 17 7 16.44 7 15.75v-3.5ZM9 13v2h2v-2H9Z" fill="#fff"/></svg>
