<svg width="24" height="24" fill="none" xmlns="http://www.w3.org/2000/svg"><path fill-rule="evenodd" clip-rule="evenodd" d="M12 4a6.04 6.04 0 0 0-4.247 1.739A5.884 5.884 0 0 0 6 9.923c0 2.135.938 4.148 2.169 5.86 1.226 1.705 2.685 3.03 3.588 3.769a12.062 12.062 0 0 0 .243.192 11.935 11.935 0 0 0 .243-.193c.903-.738 2.362-2.063 3.588-3.768C17.062 14.071 18 12.059 18 9.923c0-1.567-.63-3.073-1.753-4.184A6.04 6.04 0 0 0 12 4Zm-5.653.317A8.04 8.04 0 0 1 12 2a8.04 8.04 0 0 1 5.653 2.317A7.885 7.885 0 0 1 20 9.923c0 2.717-1.185 5.136-2.545 7.028-1.366 1.898-2.968 3.349-3.944 4.148a8.138 8.138 0 0 0-.05.041c-.222.183-.51.42-.919.536-.333.094-.75.094-1.084 0-.409-.115-.698-.354-.918-.535l-.05-.042c-.977-.8-2.58-2.25-3.945-4.148C5.185 15.059 4 12.639 4 9.923c0-2.105.846-4.121 2.347-5.606ZM12 8a1 1 0 1 0 0 2 1 1 0 0 0 0-2ZM9 9a3 3 0 1 1 6 0 3 3 0 0 1-6 0Z" fill="#fff"/></svg>
